<svg t="1592451349268" class="icon" viewBox="0 0 1024 1024" version="1.1" xmlns="http://www.w3.org/2000/svg" p-id="5088" width="48" height="48"><path d="M430.654464 146.432c160.4608-20.992 260.4544 55.5008 290.2016 155.2384a261.5296 261.5296 0 0 1 210.8416 59.4432A263.5776 263.5776 0 0 1 1024.062464 560.4352c-0.4096 127.3344-78.5408 320.6144-232.5504 320.6144H220.836864c-114.8416 0.4608-210.7392-146.5344-220.0576-261.4272-9.3184-114.944 65.2288-249.2928 208.0256-249.2928-9.472-36.096 61.44-202.9568 221.9008-223.8976z m35.072 285.3888a43.52 43.52 0 0 0-71.0144-28.0576L276.030464 502.4768l-4.3008 4.096a43.52 43.52 0 0 0-1.28 57.1904l4.096 4.3008a43.52 43.52 0 0 0 57.1904 1.3312l47.2064-39.3728v201.4208l0.3584 5.4272a43.52 43.52 0 0 0 86.7328-5.4272V437.1968z m119.552-38.1952a43.52 43.52 0 0 0-43.52 43.52v294.1952l0.3584 5.4272a43.52 43.52 0 0 0 71.0144 28.0064l118.6304-98.7136 4.2496-4.096a43.52 43.52 0 0 0 1.3312-57.1904l-4.096-4.3008a43.52 43.52 0 0 0-57.1904-1.3312l-47.2064 39.424V437.0944l-0.3584-5.4784a43.52 43.52 0 0 0-43.2128-38.0416z" fill="#999999" p-id="5089"></path></svg>