<?xml version="1.0" encoding="utf-8"?>
<!-- Generator: Adobe Illustrator 23.0.1, SVG Export Plug-In . SVG Version: 6.00 Build 0)  -->
<svg version="1.1" id="图层_1" xmlns="http://www.w3.org/2000/svg" xmlns:xlink="http://www.w3.org/1999/xlink" x="0px" y="0px"
	 viewBox="0 0 64 64" style="enable-background:new 0 0 64 64;" xml:space="preserve">
<style type="text/css">
	.st0{fill:#FCF1E8;}
	.st1{fill:#F9AA68;}
	.st2{fill:#FA8C16;}
</style>
<g>
	<g id="图层_1-2">
		<path class="st0" d="M31.8,62.1c-16.3,0-29.6-13.2-29.6-29.6S15.5,3,31.8,3s29.6,13.2,29.6,29.6S48.2,62.1,31.8,62.1z"/>
		<path class="st1" d="M31.8,7.6c13.8,0,25,11.2,25,25s-11.2,25-25,25s-25-11.2-25-25S18.1,7.6,31.8,7.6 M31.8,2.6
			c-16.6,0-30,13.4-30,30s13.4,30,30,30s30-13.4,30-30S48.4,2.6,31.8,2.6z"/>
	</g>
	<polygon class="st2" points="47.1,32.5 23.4,14.6 23.4,50.5 	"/>
</g>
</svg>
