<?xml version="1.0" encoding="utf-8"?>
<!-- Generator: Adobe Illustrator 23.0.1, SVG Export Plug-In . SVG Version: 6.00 Build 0)  -->
<svg version="1.1" id="图层_1" xmlns="http://www.w3.org/2000/svg" xmlns:xlink="http://www.w3.org/1999/xlink" x="0px" y="0px"
	 viewBox="0 0 64 64" style="enable-background:new 0 0 64 64;" xml:space="preserve">
<style type="text/css">
	.st0{fill:#FCE6E9;}
	.st1{fill:#F6606B;}
	.st2{fill:#F5222D;}
</style>
<g>
	<g id="图层_1-2">
		<path class="st0" d="M32,61.6C15.7,61.6,2.4,48.3,2.4,32S15.7,2.4,32,2.4S61.6,15.7,61.6,32S48.3,61.6,32,61.6z"/>
		<path class="st1" d="M32,6.9c13.9,0,25.1,11.3,25.1,25.1S45.9,57.1,32,57.1S6.9,45.9,6.9,32S18.1,6.9,32,6.9 M32,2
			C15.4,2,2,15.4,2,32s13.4,30,30,30s30-13.4,30-30S48.6,2,32,2z"/>
	</g>
	<rect x="19.4" y="20.2" class="st2" width="25.3" height="25.3"/>
</g>
</svg>
