<?xml version="1.0" encoding="utf-8"?>
<!-- Generator: Adobe Illustrator 23.0.1, SVG Export Plug-In . SVG Version: 6.00 Build 0)  -->
<svg version="1.1" id="图层_1" xmlns="http://www.w3.org/2000/svg" xmlns:xlink="http://www.w3.org/1999/xlink" x="0px" y="0px"
	 viewBox="0 0 64 64" style="enable-background:new 0 0 64 64;" xml:space="preserve">
<style type="text/css">
	.st0{fill:#73D13D;}
</style>
<path class="st0" d="M61.1,2.4c0.7,0.5,1,1.2,0.9,2.1l-8.6,51.4c-0.1,0.6-0.5,1.1-1.1,1.5c-0.3,0.2-0.7,0.3-1,0.3
	c-0.2,0-0.5-0.1-0.8-0.2l-15.2-6.2l-8.1,9.9c-0.4,0.5-0.9,0.8-1.6,0.8c-0.3,0-0.5,0-0.7-0.1c-0.4-0.2-0.8-0.4-1-0.8
	c-0.3-0.4-0.4-0.8-0.4-1.2V48.2l28.9-35.5l-35.8,31L3.3,38.3C2.5,38,2,37.4,2,36.5s0.3-1.6,1.1-2L58.8,2.3C59.1,2.1,59.5,2,59.9,2
	C60.3,2,60.7,2.1,61.1,2.4z"/>
</svg>
