<?xml version="1.0" encoding="utf-8"?>
<!-- Generator: Adobe Illustrator 23.0.1, SVG Export Plug-In . SVG Version: 6.00 Build 0)  -->
<svg version="1.1" id="图层_1" xmlns="http://www.w3.org/2000/svg" xmlns:xlink="http://www.w3.org/1999/xlink" x="0px" y="0px"
	 viewBox="0 0 128 128" style="enable-background:new 0 0 128 128;" xml:space="preserve">
<style type="text/css">
	.st0{fill:url(#SVGID_1_);}
	.st1{fill:url(#SVGID_2_);}
	.st2{fill:url(#SVGID_3_);}
	.st3{fill:url(#SVGID_4_);}
</style>
<title>Vue</title>
<desc>Created with Sketch.</desc>
<g>
	
		<linearGradient id="SVGID_1_" gradientUnits="userSpaceOnUse" x1="7.5217" y1="49.3" x2="21.4407" y2="49.3" gradientTransform="matrix(1 0 0 -1 0 128)">
		<stop  offset="0" style="stop-color:#29CDFF"/>
		<stop  offset="0.3786" style="stop-color:#148EFF"/>
		<stop  offset="1" style="stop-color:#0A60FF"/>
	</linearGradient>
	<path class="st0" d="M7.5,87.4L7.5,87.4c0-1.1,0.9-1.9,1.9-1.7c1.2,0.2,2.7,0.4,4.1,0.4c2.9,0,4-0.7,4-2.8c0-1.9-0.7-2.5-4.1-3.4
		C9,78.8,7.6,77.7,7.6,74c0-4.2,2.6-6,7.4-6c1.5,0,2.9,0.2,4,0.4c0.7,0.2,1.3,0.8,1.3,1.6l0,0c0,1-0.9,1.8-1.9,1.6
		c-1-0.2-2.2-0.3-3.3-0.3c-2.5,0-3.7,0.5-3.7,2.6c0,1.6,0.5,2.1,3.8,2.9c4.9,1.2,6.1,2.6,6.1,6.5c0,4.1-2.4,6.1-7.8,6.1
		c-1.8,0-3.5-0.2-4.8-0.4C8.1,88.9,7.5,88.2,7.5,87.4z"/>
	
		<linearGradient id="SVGID_2_" gradientUnits="userSpaceOnUse" x1="41.1484" y1="59.8306" x2="27.4863" y2="37.8575" gradientTransform="matrix(1 0 0 -1 0 128)">
		<stop  offset="0" style="stop-color:#29CDFF"/>
		<stop  offset="0.3786" style="stop-color:#148EFF"/>
		<stop  offset="1" style="stop-color:#0A60FF"/>
	</linearGradient>
	<path class="st1" d="M25.3,68.4H26c0.8,0,1.4,0.5,1.6,1.3l3,14.9h0.2L34,71.8c0.2-0.7,0.8-1.2,1.6-1.2h2c0.8,0,1.4,0.5,1.6,1.2
		l3.1,12.8h0.2l3.1-14.9c0.2-0.8,0.8-1.3,1.6-1.3h0.7c1.1,0,1.8,1,1.6,2l-4.1,17.5c-0.2,0.7-0.8,1.3-1.6,1.3h-2.4
		c-0.7,0-1.4-0.5-1.6-1.2l-3.2-12.7h-0.2L33.1,88c-0.2,0.7-0.8,1.2-1.6,1.2h-2.3c-0.8,0-1.4-0.5-1.6-1.3l-3.9-17.5
		C23.5,69.3,24.3,68.4,25.3,68.4z"/>
	
		<linearGradient id="SVGID_3_" gradientUnits="userSpaceOnUse" x1="50.8723" y1="41" x2="55.6723" y2="41" gradientTransform="matrix(1 0 0 -1 0 128)">
		<stop  offset="1.584676e-02" style="stop-color:#29CDFF"/>
		<stop  offset="0.3786" style="stop-color:#148EFF"/>
		<stop  offset="1" style="stop-color:#0A60FF"/>
	</linearGradient>
	<path class="st2" d="M50.9,87c0-2.1,0.4-2.4,2.4-2.4s2.4,0.3,2.4,2.4s-0.4,2.4-2.4,2.4S50.9,89,50.9,87z"/>
	
		<linearGradient id="SVGID_4_" gradientUnits="userSpaceOnUse" x1="103.7378" y1="97.6925" x2="84.8562" y2="44.9706" gradientTransform="matrix(1 0 0 -1 0 128)">
		<stop  offset="0.3679" style="stop-color:#F74A5C"/>
		<stop  offset="0.5768" style="stop-color:#F63A4B"/>
		<stop  offset="1" style="stop-color:#F51D2C"/>
	</linearGradient>
	<path class="st3" d="M67.1,33.7h12.7c1.1,0,2,0.7,2.3,1.7l10.3,31.1h0.5l10.6-31.1c0.3-1,1.3-1.7,2.3-1.7h12.3
		c1.4,0,2.4,1.1,2.4,2.4v50.6c0,1.4-1.1,2.4-2.4,2.4h-5.4c-1.4,0-2.4-1.1-2.4-2.4V43.9h-0.5L98.5,76.3c-0.3,1-1.3,1.6-2.3,1.6H89
		c-1,0-2-0.7-2.3-1.6L75.4,43.9h-0.5v42.8c0,1.4-1.1,2.4-2.4,2.4h-5.3c-1.4,0-2.4-1.1-2.4-2.4V36.1C64.6,34.8,65.7,33.7,67.1,33.7z"
		/>
</g>
</svg>
