<?xml version="1.0" encoding="utf-8"?>
<!-- Generator: Adobe Illustrator 23.0.1, SVG Export Plug-In . SVG Version: 6.00 Build 0)  -->
<svg version="1.1" id="图层_1" xmlns="http://www.w3.org/2000/svg" xmlns:xlink="http://www.w3.org/1999/xlink" x="0px" y="0px"
	 viewBox="0 0 461 49.1" style="enable-background:new 0 0 461 49.1;" xml:space="preserve">
<title>Ant Design Vue Copy 5</title>
<desc>Created with Sketch.</desc>
<g>
	<path d="M0,47.4v-5.3c2.6,1,7.9,2,13.1,2c6.6,0,10.1-2,10.1-7.5c0-5.4-1.9-6.9-10.2-8.9C4,25.6,0.6,23.3,0.6,15.5
		c0-8,4.7-12,14.7-12c4.3,0,9,0.8,11.1,1.6v5.2c-2.5-1-7-1.8-11-1.8c-6.2,0-9.1,1.2-9.1,6.9c0,4.1,1.1,5.6,9,7.5
		c9.9,2.3,13.4,4.9,13.4,13.6c0,8.6-5.5,12.6-15.7,12.6C7.6,49.1,2.2,48.1,0,47.4z"/>
	<path d="M66.3,24.6v23.8h-5.5V26.6c0-5.3-1.1-8.3-6.6-8.3c-4.3,0-8.5,0.8-10.5,6.9v23.3h-5.5V14h5.5v4.9c2.1-4.4,6.8-5.5,11-5.5
		C63.7,13.4,66.3,18,66.3,24.6z"/>
	<path d="M89.9,4.2h6l8.3,37.5h0.4l9-32.4h6.9l9,32.4h0.4L138,4.2h5.8l-10.5,44.2H126l-9-32.8h-0.4l-9.2,32.8h-7.3L89.9,4.2z"/>
	<path d="M177,31.8l-23.3,1.5c0.1,7.5,2.7,11,11,11c3.8,0,8.2-1,10.8-2.2v5c-2,1-6.7,2-11.6,2c-10.1,0-15.9-4.1-15.9-17.8
		s5.8-17.8,15.6-17.8c11.7,0,13.8,7.7,13.8,14.4C177.3,28.7,177.2,30.2,177,31.8z M171.9,27.8c0-5.3-0.9-9.9-8.3-9.9
		c-7.9,0-9.7,4.3-9.9,11.3L171.9,27.8z"/>
	<path d="M217.6,31.2c0,9.5-2.7,17.8-14.2,17.8c-6.7,0-9.8-2.6-11.2-6.6l-0.7,6h-4.8V0h5.5v20.2c1.4-4.1,4.6-6.8,11.2-6.8
		C215,13.4,217.6,20.7,217.6,31.2z M211.9,31.2c0-7.2-1.2-13.3-9.2-13.3c-8.3,0-10.7,5-10.7,13.3c0,7.9,2.4,13.2,10.7,13.2
		C210.9,44.4,211.9,37.9,211.9,31.2z"/>
	<path d="M243.7,4.2h9.2l11.3,28.5h0.4l11.3-28.5h9v44.2h-5.7V10h-0.4l-11.3,28.4h-6.2L249.7,10h-0.4v38.4h-5.6V4.2z"/>
	<path d="M294.5,31.2c0-13.7,5.8-17.8,15.9-17.8c10.2,0,15.9,4.1,15.9,17.8s-5.7,17.8-15.9,17.8C300.3,49.1,294.5,44.9,294.5,31.2z
		 M320.5,31.2c0-10.1-2.5-13.3-10.1-13.3c-7.7,0-10.1,3.2-10.1,13.3c0,10.1,2.6,13.2,10.1,13.2C318.2,44.4,320.5,41.3,320.5,31.2z"
		/>
	<path d="M364.8,0v48.4h-4.7l-0.8-5.7c-1.3,3.6-5,6.3-11.2,6.3c-11.4,0-14.2-7.3-14.2-17.8c0-9.4,2.8-17.8,14.2-17.8
		c6.8,0,9.8,2.6,11.2,6.6V0H364.8z M359.5,31.2c0-7.9-2.3-13.3-10.6-13.3c-8.3,0-9.2,6.6-9.2,13.3c0,7.2,1.1,13.2,9.2,13.2
		C357.3,44.4,359.5,39.4,359.5,31.2z"/>
	<path d="M403.8,14v34.4h-4.7l-0.7-5c-2.1,4.5-6.6,5.6-10.8,5.6c-9,0-11.5-4.6-11.5-11.2V14h5.5v21.8c0,5.2,1.1,8.4,6.6,8.4
		c4.3,0,8.2-0.9,10.1-6.8V14H403.8z"/>
	<path d="M415.4,41.5V0h5.5v40.1c0,3.4,1,4.1,3.2,4.1c0.8,0,1.7-0.1,2.6-0.3v4.5c-1,0.3-2.1,0.4-3.6,0.4
		C418,48.8,415.4,46.6,415.4,41.5z"/>
	<path d="M460.7,31.8l-23.3,1.5c0.1,7.5,2.7,11,11,11c3.8,0,8.2-1,10.8-2.2v5c-2,1-6.7,2-11.6,2c-10.1,0-15.9-4.1-15.9-17.8
		s5.8-17.8,15.6-17.8c11.7,0,13.8,7.7,13.8,14.4C461,28.7,460.9,30.2,460.7,31.8z M455.6,27.8c0-5.3-0.9-9.9-8.3-9.9
		c-7.9,0-9.7,4.3-9.9,11.3L455.6,27.8z"/>
</g>
</svg>
