<?xml version="1.0" encoding="utf-8"?>
<!-- Generator: Adobe Illustrator 23.0.1, SVG Export Plug-In . SVG Version: 6.00 Build 0)  -->
<svg version="1.1" id="图层_1" xmlns="http://www.w3.org/2000/svg" xmlns:xlink="http://www.w3.org/1999/xlink" x="0px" y="0px"
	 viewBox="0 0 107 61" style="enable-background:new 0 0 107 61;" xml:space="preserve">
<style type="text/css">
	.st0{fill:#FCF1E8;stroke:#F9AA68;stroke-miterlimit:10;}
	.st1{fill:#FCF1E8;}
	.st2{fill:#F9AA68;}
	.st3{fill:#FA8C16;}
</style>
<title>task_1</title>
<g>
	<g id="图层_1-2">
		<path class="st0" d="M8.9,0.5h89.2c4.6,0,8.4,3.8,8.4,8.4v43.2c0,4.6-3.8,8.4-8.4,8.4H8.9c-4.6,0-8.4-3.8-8.4-8.4V8.9
			C0.5,4.3,4.3,0.5,8.9,0.5z"/>
	</g>
</g>
<g>
	<g id="图层_1-2_1_">
		<path class="st1" d="M53.5,45.3c-8.2,0-14.8-6.6-14.8-14.8s6.6-14.8,14.8-14.8s14.8,6.6,14.8,14.8S61.7,45.3,53.5,45.3z"/>
		<path class="st2" d="M53.5,18C60.4,18,66,23.6,66,30.5S60.4,43,53.5,43S41,37.4,41,30.5S46.7,18,53.5,18 M53.5,15.5
			c-8.3,0-15,6.7-15,15s6.7,15,15,15s15-6.7,15-15S61.8,15.5,53.5,15.5z"/>
	</g>
	<polygon class="st3" points="61.2,30.5 49.3,21.5 49.3,39.5 	"/>
</g>
</svg>
