<?xml version="1.0" encoding="utf-8"?>
<!-- Generator: Adobe Illustrator 23.0.1, SVG Export Plug-In . SVG Version: 6.00 Build 0)  -->
<svg version="1.1" id="图层_1" xmlns="http://www.w3.org/2000/svg" xmlns:xlink="http://www.w3.org/1999/xlink" x="0px" y="0px"
	 viewBox="0 0 107 61" style="enable-background:new 0 0 107 61;" xml:space="preserve">
<style type="text/css">
	.st0{fill:#F6FFED;stroke:#73D13D;stroke-miterlimit:10;}
	.st1{fill:#73D13D;}
</style>
<title>task_1</title>
<g>
	<g id="图层_1-2">
		<path class="st0" d="M8.9,0.5h89.2c4.6,0,8.4,3.8,8.4,8.4v43.2c0,4.6-3.8,8.4-8.4,8.4H8.9c-4.6,0-8.4-3.8-8.4-8.4V8.9
			C0.5,4.3,4.3,0.5,8.9,0.5z"/>
	</g>
</g>
<path class="st1" d="M68,15.7c0.3,0.2,0.5,0.6,0.4,1l-4.3,25.7c0,0.3-0.2,0.5-0.5,0.7c-0.1,0.1-0.3,0.1-0.5,0.1
	c-0.1,0-0.2,0-0.4-0.1L55.1,40l-4,4.9c-0.2,0.2-0.4,0.4-0.8,0.4c-0.1,0-0.2,0-0.3,0c-0.2-0.1-0.4-0.2-0.5-0.4s-0.2-0.4-0.2-0.6v-5.8
	l14.4-17.7L45.8,36.3l-6.6-2.7c-0.4-0.1-0.6-0.4-0.6-0.9s0.1-0.8,0.5-1l27.8-16.1c0.1-0.1,0.3-0.1,0.5-0.1S67.8,15.6,68,15.7z"/>
</svg>
